<?xml version="1.0" standalone="no"?>
<!DOCTYPE svg PUBLIC "-//W3C//DTD SVG 20010904//EN"
 "http://www.w3.org/TR/2001/REC-SVG-20010904/DTD/svg10.dtd">
<svg version="1.0" xmlns="http://www.w3.org/2000/svg"
 width="1024.000000pt" height="1024.000000pt" viewBox="0 0 1024.000000 1024.000000"
 preserveAspectRatio="xMidYMid meet">
<metadata>
Created by potrace 1.14, written by Peter Selinger 2001-2017
</metadata>
<g transform="translate(0.000000,1024.000000) scale(0.100000,-0.100000)"
fill="#000000" stroke="none">
<path d="M0 5120 l0 -5120 5120 0 5120 0 0 5120 0 5120 -5120 0 -5120 0 0
-5120z m6095 4677 c38 -23 97 -68 132 -100 143 -134 181 -267 125 -447 l-17
-55 -2 60 c-3 78 -23 195 -33 195 -4 0 -30 35 -58 78 -70 107 -95 174 -49 136
20 -17 19 -16 -3 11 -61 73 -89 100 -145 138 -75 50 -43 40 50 -16z m1090
-259 c40 -120 111 -199 216 -238 l61 -23 -44 -17 c-148 -56 -227 -162 -272
-361 l-22 -99 -13 62 c-30 147 -98 274 -174 327 -25 17 -78 42 -118 55 -41 14
-68 26 -61 26 7 0 48 14 90 32 143 59 211 158 263 383 l23 100 17 -97 c9 -53
25 -121 34 -150z m-1499 101 c77 -24 171 -86 224 -147 55 -65 115 -190 140
-292 24 -102 27 -178 3 -90 -13 49 -87 220 -95 220 -2 0 -4 -32 -5 -71 -3 -75
-25 -131 -55 -137 -10 -2 -38 30 -78 90 -99 145 -176 243 -261 334 -55 58 -77
88 -72 99 3 10 13 15 24 12 11 -3 16 -1 13 5 -9 14 85 1 162 -23z m-3131 -84
c148 -39 276 -143 349 -284 34 -66 46 -100 46 -133 0 -24 7 -53 15 -64 8 -10
15 -27 15 -37 0 -17 1 -17 31 0 55 32 180 155 210 207 40 70 39 110 -3 137
-23 14 -46 19 -78 17 -39 -3 -45 0 -48 18 -4 26 25 39 114 55 86 15 167 8 202
-18 39 -29 42 -94 8 -162 -70 -136 -305 -359 -519 -490 -75 -46 -250 -134
-342 -174 -390 -165 -497 -203 -674 -237 -114 -22 -271 -28 -313 -12 -38 15
-68 52 -68 82 0 54 113 184 215 248 22 14 57 38 78 55 51 40 56 29 8 -20 -41
-44 -81 -117 -81 -150 0 -58 90 -76 219 -44 47 12 87 23 89 26 3 3 -4 15 -15
28 -86 94 -142 258 -143 416 -1 250 136 446 365 523 95 33 224 38 320 13z
m2628 -136 c282 -56 510 -171 668 -336 68 -72 139 -162 139 -178 0 -4 -35 23
-77 60 -182 156 -491 294 -743 331 -407 59 -922 -101 -1291 -402 -123 -100
-234 -225 -278 -311 -41 -82 -63 -109 -80 -99 -15 10 -102 -157 -138 -265 -46
-137 -60 -274 -45 -437 15 -152 48 -324 94 -474 33 -109 33 -110 85 -146 35
-25 58 -50 68 -75 19 -47 19 -57 -1 -57 -10 0 -14 -5 -10 -15 5 -13 2 -14 -22
-1 -141 73 -302 -42 -302 -217 0 -65 32 -153 59 -162 9 -2 29 -25 44 -49 27
-42 95 -111 103 -104 2 2 -3 22 -11 43 -17 48 -19 111 -5 152 12 33 50 59 73
50 8 -3 39 -51 67 -106 29 -55 65 -115 81 -133 24 -29 30 -32 48 -21 19 12 21
10 32 -30 6 -23 19 -68 29 -100 l18 -57 -27 -8 c-32 -9 -177 -9 -213 0 -55 13
-154 68 -205 113 -70 61 -144 175 -174 266 -19 60 -24 94 -24 184 0 105 2 114
33 178 42 85 104 137 200 168 l68 22 -34 91 c-84 221 -138 524 -129 715 11
244 96 516 211 676 20 27 32 51 26 53 -15 5 -188 -72 -311 -139 -339 -184
-601 -379 -854 -633 -339 -341 -574 -724 -732 -1191 -24 -71 -50 -157 -59
-190 -8 -33 -22 -79 -31 -102 l-16 -43 -40 25 c-39 23 -41 26 -38 67 7 99 115
397 227 624 281 571 700 1034 1249 1379 149 94 418 229 597 300 133 53 156 66
233 130 338 284 706 447 1085 479 83 7 254 -5 353 -25z m-1412 -18 c32 -33 36
-58 14 -101 -27 -53 -129 -59 -155 -10 -49 92 68 184 141 111z m-2123 -113
c21 -21 15 -67 -12 -79 -34 -16 -66 3 -66 39 0 33 16 52 45 52 12 0 26 -5 33
-12z m5063 -190 l32 -11 -29 -24 c-19 -15 -42 -23 -69 -23 -29 0 -36 -3 -25
-10 11 -7 -1 -16 -52 -39 -74 -34 -121 -46 -221 -56 -56 -5 -68 -4 -73 9 -3 9
-3 24 2 34 4 9 7 20 6 24 -4 19 130 85 212 104 65 15 162 11 217 -8z m-238
-284 c231 -60 433 -270 504 -524 28 -102 25 -418 -5 -559 -13 -57 -30 -120
-39 -140 l-17 -36 -5 40 c-4 26 -11 40 -21 40 -13 0 -14 21 -11 140 2 100 -2
168 -14 238 -16 93 -19 100 -58 138 -23 22 -88 72 -145 111 -56 39 -129 99
-162 134 -92 99 -91 147 3 195 35 18 41 19 89 4 l52 -15 -34 36 c-69 71 -270
194 -318 194 -7 0 -10 5 -7 10 9 15 120 12 188 -6z m1261 -40 c19 -7 21 -55 4
-72 -26 -26 -66 24 -48 59 11 20 19 23 44 13z m-756 -58 c655 -317 1280 -934
1612 -1591 42 -82 89 -193 104 -245 l29 -95 59 -40 c95 -64 191 -173 243 -277
45 -90 45 -91 45 -195 0 -188 -51 -315 -180 -443 -86 -87 -162 -129 -292 -162
-69 -17 -101 -20 -203 -15 -136 6 -229 29 -333 81 -152 77 -245 172 -322 331
-72 151 -82 208 -56 341 26 137 168 299 336 384 112 56 192 74 340 74 75 0
152 -5 173 -11 l39 -12 -7 27 c-15 61 -89 230 -142 325 -158 282 -360 546
-607 793 -240 239 -480 427 -831 648 -77 49 -151 100 -165 113 l-25 25 44 -5
c24 -3 86 -26 139 -51z m1462 -40 c22 -22 59 -69 83 -103 23 -34 47 -63 52
-63 6 0 36 9 68 20 64 23 145 26 171 7 15 -11 16 -18 5 -62 -17 -72 -33 -98
-94 -158 -30 -29 -55 -57 -55 -61 0 -4 17 -33 39 -64 74 -109 89 -164 54 -193
-35 -29 -204 -2 -266 42 -15 11 -36 18 -45 15 -10 -4 -44 -38 -76 -76 -68 -84
-88 -96 -108 -72 -44 52 -60 93 -55 140 l6 47 -72 50 c-81 57 -137 124 -137
164 0 39 47 79 120 102 34 10 70 19 81 19 20 0 22 5 40 109 14 86 35 136 69
165 38 32 70 24 120 -28z m-4512 -297 c-19 -12 5 -12 73 1 41 8 64 8 97 -2 54
-16 57 -29 12 -45 -42 -14 -240 -17 -240 -4 0 6 10 17 22 25 12 9 17 16 11 16
-7 0 -15 -4 -18 -10 -3 -5 -17 -10 -31 -10 -13 0 -24 5 -24 10 0 6 -8 11 -17
11 -10 1 5 7 32 13 54 13 107 10 83 -5z m3420 -202 c8 -6 21 -27 29 -45 26
-62 -9 -120 -83 -136 -38 -8 -80 21 -100 71 -22 51 8 112 61 126 28 7 75 -1
93 -16z m-5464 -219 c-115 -118 -166 -177 -276 -318 -37 -47 -81 -101 -99
-120 l-32 -34 -22 28 c-19 24 -25 26 -44 17 -11 -6 -28 -25 -36 -41 -11 -21
-23 -30 -40 -30 -15 0 -25 6 -25 14 0 30 58 176 91 231 77 128 215 246 347
295 45 18 219 67 242 70 2 0 -45 -51 -106 -112z m1044 -2 c44 -10 50 -25 19
-52 -22 -18 -25 -28 -20 -57 7 -44 -8 -53 -58 -37 -34 12 -41 11 -59 -5 -28
-25 -50 -13 -50 29 0 24 -8 43 -26 61 -29 29 -22 48 21 59 16 4 33 22 46 48
l21 41 37 -40 c21 -24 50 -43 69 -47z m3148 -63 c53 -119 62 -133 161 -244
141 -159 199 -253 228 -372 59 -244 58 -421 -4 -685 -66 -279 -51 -258 41 58
32 112 74 236 93 275 18 38 43 106 54 150 13 52 28 86 42 98 12 9 18 17 14 17
-5 0 0 9 10 20 21 23 60 28 52 6 -4 -10 11 -15 66 -18 45 -3 87 -13 112 -26
91 -47 154 -147 177 -280 38 -226 -116 -492 -347 -597 -102 -47 -165 -59 -290
-58 l-111 2 -32 -62 c-35 -68 -116 -168 -166 -205 -110 -81 -350 -210 -481
-257 -252 -91 -473 -133 -645 -120 -132 9 -186 20 -335 70 -317 104 -555 275
-712 514 -105 158 -138 225 -159 317 -15 70 -16 93 -4 223 6 80 13 147 15 149
2 2 11 -23 20 -54 26 -90 69 -164 94 -164 5 0 2 28 -6 63 -26 111 0 277 60
379 31 53 111 129 163 156 78 40 151 55 248 50 106 -5 173 -32 250 -99 30 -27
52 -39 63 -35 14 6 14 9 -3 28 -36 40 -138 98 -216 123 -187 59 -389 15 -534
-118 -58 -53 -87 -94 -115 -165 l-19 -47 4 155 c7 225 51 391 130 477 34 38
122 88 241 135 56 22 155 39 155 26 0 -4 -9 -8 -20 -8 -38 0 -126 -41 -181
-84 -92 -72 -150 -185 -104 -202 8 -3 51 11 97 31 138 62 173 69 244 56 33 -6
90 -24 125 -40 92 -41 107 -43 124 -18 10 14 13 33 8 61 -6 36 -4 39 13 31 10
-4 36 -11 56 -15 20 -4 59 -21 86 -39 115 -74 319 -79 505 -14 40 14 88 29
107 33 19 5 45 11 56 15 19 6 21 3 21 -35 0 -72 16 -74 158 -19 47 18 80 23
155 24 92 0 98 -2 183 -42 93 -45 122 -52 129 -30 21 56 -111 205 -231 260
l-71 33 46 45 c25 24 64 68 85 97 22 28 44 52 50 52 6 0 26 -35 45 -77z m3062
-76 c6 -28 -16 -49 -39 -36 -19 10 -25 39 -12 53 13 13 48 1 51 -17z m-7873
-57 c9 -15 -4 -50 -19 -50 -20 0 -37 25 -30 44 7 18 39 22 49 6z m7791 -185
c35 -22 57 -71 49 -106 -4 -17 -20 -46 -37 -65 -25 -29 -28 -37 -18 -50 9 -10
10 -18 3 -25 -7 -7 -20 1 -39 23 -31 35 -52 41 -77 20 -17 -15 -41 -6 -72 24
-13 13 -13 19 -3 32 10 12 10 14 1 8 -22 -12 -15 45 10 89 39 70 119 92 183
50z m-1154 -11 c19 -12 48 -89 48 -131 0 -23 -5 -54 -12 -70 -6 -15 -10 -33
-9 -39 4 -27 -26 -35 -84 -25 -68 13 -107 39 -130 87 -43 92 34 202 133 190
24 -3 48 -9 54 -12z m-5409 -59 c31 -30 57 -60 57 -68 0 -8 -11 -19 -24 -25
-14 -6 -35 -25 -47 -41 -13 -17 -29 -31 -37 -31 -8 0 -32 16 -55 35 -22 19
-44 35 -49 35 -19 0 -6 49 17 64 14 9 33 33 42 51 9 19 21 35 27 35 6 -1 37
-25 69 -55z m-1618 0 c0 -13 -8 -21 -22 -23 -19 -3 -23 1 -23 23 0 22 4 26 23
23 14 -2 22 -10 22 -23z m190 -406 c21 -45 56 -79 104 -98 17 -8 31 -17 31
-21 0 -5 -21 -20 -46 -35 -29 -17 -58 -45 -77 -76 -16 -27 -33 -49 -37 -49 -4
0 -11 10 -17 23 -18 40 -64 87 -104 108 -22 11 -39 23 -39 27 0 4 23 19 50 34
37 21 57 41 78 78 15 27 30 50 33 50 3 0 14 -18 24 -41z m1425 -64 c196 -52
371 -226 420 -420 20 -80 13 -212 -15 -300 -25 -76 -53 -136 -77 -165 -20 -24
-130 -114 -171 -139 -21 -12 -35 -26 -32 -31 9 -14 -106 -51 -195 -62 -358
-46 -680 282 -631 642 18 136 69 239 164 332 59 59 119 94 217 130 61 22 92
27 170 27 53 1 119 -6 150 -14z m6805 -459 c16 -12 18 -19 10 -42 -17 -48 -75
-40 -75 10 0 42 31 57 65 32z m-2018 -431 c36 -41 31 -99 -11 -141 -55 -55
-122 -41 -152 32 -21 51 -17 73 21 111 32 32 39 35 78 30 28 -4 49 -14 64 -32z
m-4103 -81 c8 -21 -11 -45 -30 -37 -14 5 -19 34 -7 46 12 12 31 7 37 -9z m784
-137 c-57 -44 -100 -115 -106 -177 -7 -71 29 -137 136 -251 48 -51 83 -90 77
-88 -5 2 -55 34 -110 70 -162 106 -208 173 -185 267 17 72 74 141 149 179 80
42 94 42 39 0z m2332 1 c136 -58 190 -203 121 -324 -34 -58 -117 -134 -211
-191 -107 -65 -108 -58 -8 39 61 59 105 112 121 144 67 132 33 272 -79 327
-85 41 -38 46 56 5z m-3107 -188 c31 -24 50 -78 41 -114 -9 -36 -59 -76 -95
-76 -43 0 -84 25 -99 59 -39 96 74 193 153 131z m6373 -5 c3 -8 -6 -72 -20
-142 -14 -71 -41 -220 -60 -333 -39 -225 -47 -258 -60 -262 -15 -5 -25 49 -32
172 -11 186 20 378 78 495 37 73 81 106 94 70z m-7454 -66 c214 -45 386 -265
365 -468 -7 -66 -24 -83 -100 -106 -58 -17 -191 -19 -257 -4 -116 27 -267 135
-323 232 -26 45 -52 119 -61 177 -20 118 183 209 376 169z m-1240 -35 c10 -17
28 -74 40 -125 19 -81 22 -123 22 -309 1 -217 -9 -301 -40 -362 -20 -38 -31
-35 -44 13 -27 100 -42 269 -47 537 l-6 284 29 -4 c19 -2 34 -13 46 -34z m468
17 c0 -26 -23 -44 -38 -29 -22 22 -14 48 13 48 18 0 25 -5 25 -19z m5414 -107
c49 -48 -15 -113 -66 -67 -22 20 -23 32 -2 61 18 26 46 28 68 6z m-4101 -55
c8 -13 6 -24 -6 -42 -29 -45 -85 -10 -66 41 7 18 15 23 35 20 15 -2 32 -10 37
-19z m2409 -69 c60 -13 136 -20 202 -20 58 0 106 -4 106 -8 0 -20 -52 -54
-121 -78 -62 -23 -91 -27 -179 -27 -90 -1 -117 4 -188 28 -95 32 -145 62 -150
89 -3 13 9 30 34 51 l37 32 81 -24 c45 -13 124 -32 178 -43z m1352 -86 c155
-132 309 -333 425 -554 169 -324 261 -602 261 -792 0 -138 -45 -287 -121 -405
-45 -69 -174 -196 -192 -190 -26 8 -17 42 35 135 75 134 115 235 132 332 8 46
13 88 11 94 -2 6 -6 25 -9 41 l-6 30 28 -34 29 -34 -7 54 c-4 30 -18 92 -31
139 l-23 84 -11 -44 -11 -45 -33 80 c-60 146 -110 254 -162 347 -68 124 -261
413 -346 517 -37 46 -76 97 -86 115 -20 34 -16 81 8 105 13 13 11 19 -17 48
-25 26 -29 35 -19 47 19 23 59 3 145 -70z m-2557 -4 c-4 -15 0 -20 13 -20 45
0 32 -38 -81 -237 -192 -338 -285 -526 -345 -696 -32 -94 -56 -129 -114 -168
-55 -38 -75 -75 -111 -204 -32 -119 -25 -216 24 -319 60 -127 145 -234 277
-350 l55 -49 -48 33 c-71 50 -248 237 -291 308 -21 34 -47 88 -59 120 -63 169
21 564 197 937 66 138 147 269 243 393 75 96 230 272 240 272 3 0 3 -9 0 -20z
m3851 -60 c75 -55 103 -158 65 -237 -24 -52 -94 -93 -157 -93 -66 0 -113 25
-151 78 -26 37 -30 53 -30 106 0 115 67 179 180 173 45 -2 69 -9 93 -27z
m-4720 -2 c17 -15 15 -74 -4 -92 -36 -37 -104 -7 -104 45 0 53 64 81 108 47z
m-1285 -59 c143 -124 378 -267 530 -324 33 -13 47 -23 45 -34 -6 -28 -71 -17
-164 28 -251 120 -514 312 -514 374 0 15 5 27 10 27 6 0 47 -32 93 -71z m8156
-46 c-8 -10 -30 -37 -51 -61 -20 -24 -87 -117 -148 -208 -61 -90 -129 -185
-151 -211 -22 -27 -52 -61 -65 -77 -14 -16 -27 -26 -30 -23 -8 8 47 140 112
268 61 120 134 221 188 262 42 33 113 66 140 67 16 0 17 -2 5 -17z m-6449 -9
c11 -12 11 -18 -1 -30 -20 -19 -53 3 -43 29 8 21 27 22 44 1z m5690 -6 c1 -7
15 -22 33 -33 18 -11 44 -43 59 -70 53 -96 113 -323 109 -410 -3 -50 -19 -52
-41 -4 -11 24 -18 36 -16 27 21 -76 27 -101 22 -105 -14 -14 -108 102 -149
183 -98 197 -120 340 -61 405 19 22 44 25 44 7z m-7867 -160 c9 -7 21 -36 26
-65 26 -138 -73 -401 -214 -567 l-52 -62 19 -54 c19 -57 12 -84 -16 -61 -25
21 -83 225 -117 414 -28 152 -31 180 -18 187 7 5 17 6 20 2 4 -4 21 -74 39
-157 17 -82 35 -156 39 -164 5 -7 11 19 15 61 21 236 135 476 227 478 8 0 23
-6 32 -12z m6024 -40 c44 -41 19 -108 -40 -108 -40 0 -67 26 -67 63 0 62 61
88 107 45z m-1994 -87 c171 -60 271 -163 321 -331 11 -37 16 -87 15 -157 -1
-55 2 -106 5 -112 16 -25 76 -9 208 55 79 38 156 69 181 71 41 5 45 3 83 -39
l39 -45 40 18 c22 10 56 18 75 18 l35 0 -28 -23 c-31 -25 -730 -380 -919 -467
-96 -43 -118 -57 -118 -74 0 -12 -6 -27 -12 -33 -10 -10 -14 -113 -16 -430
l-4 -417 -23 -22 c-20 -19 -35 -23 -82 -22 -85 1 -126 18 -139 60 -6 19 -19
52 -30 74 -17 37 -19 71 -24 397 l-5 358 -25 24 c-25 24 -498 318 -595 369
-27 15 -62 27 -77 27 -17 0 -34 10 -48 28 l-22 27 6 -45 c3 -25 8 -83 11 -130
4 -47 12 -130 20 -185 18 -133 24 -205 15 -200 -11 7 -31 116 -35 193 -3 37
-11 103 -19 148 -8 45 -20 135 -27 202 -11 109 -11 123 5 146 9 14 25 26 34
26 10 0 29 11 42 25 25 26 82 47 105 39 23 -9 43 46 55 151 10 94 21 127 36
112 4 -4 -3 -55 -15 -114 -31 -160 -30 -167 27 -203 105 -66 187 -103 214 -97
l27 7 -2 128 c-2 124 -1 128 30 196 57 119 198 230 339 265 62 16 230 6 297
-18z m3018 8 c8 -16 8 -28 0 -45 -18 -41 -71 -25 -71 21 0 44 50 61 71 24z
m-3971 -167 c-29 -168 -41 -207 -65 -207 -17 0 -21 8 -23 48 -2 27 4 71 14
100 20 60 83 191 90 185 2 -3 -5 -59 -16 -126z m-1542 60 c4 -25 -13 -35 -53
-30 l-27 3 22 28 c26 32 54 32 58 -1z m5870 -131 c36 -19 62 -70 62 -122 0
-38 -5 -50 -32 -76 -43 -40 -69 -53 -108 -53 -100 0 -170 112 -126 199 37 71
126 94 204 52z m-6887 9 c22 -12 26 -59 7 -78 -28 -28 -78 -1 -78 42 0 40 32
57 71 36z m7139 -102 c64 -65 143 -248 157 -360 6 -47 5 -48 -21 -48 -32 0
-32 2 19 -127 l32 -82 -66 60 c-78 72 -111 117 -161 224 -60 126 -83 203 -84
276 -1 76 12 99 55 99 21 0 40 -12 69 -42z m-1091 18 c7 -9 8 -17 2 -20 -14
-9 -41 4 -41 20 0 18 24 18 39 0z m-6279 -196 c19 -41 21 -57 15 -106 -15
-123 -66 -246 -187 -450 -62 -104 -78 -116 -109 -78 -19 23 -5 273 19 366 28
105 81 216 128 268 66 73 100 73 134 0z m8307 -5 c2 -6 -27 -28 -64 -50 -38
-21 -143 -90 -235 -152 -199 -135 -318 -196 -318 -163 0 5 41 52 92 105 151
158 359 278 472 273 27 -2 51 -8 53 -13z m-6963 -31 c23 -9 22 -67 0 -62 -23
4 -39 32 -31 52 7 18 9 19 31 10z m-443 -97 c24 -13 57 -42 73 -65 24 -34 29
-51 29 -99 0 -63 -11 -92 -52 -136 -39 -43 -80 -60 -141 -60 -115 0 -180 68
-180 189 0 149 143 238 271 171z m4282 -88 c72 -20 84 -85 32 -174 -49 -84
-186 -185 -253 -185 -35 0 -88 25 -106 51 -20 29 -20 74 0 153 18 71 34 99 70
123 58 38 181 53 257 32z m-2979 -32 c67 -31 123 -81 181 -162 24 -34 60 -72
80 -83 19 -12 35 -25 35 -30 0 -16 69 0 72 17 2 9 2 -42 0 -113 -4 -116 -3
-131 14 -143 19 -14 89 -18 80 -5 -10 16 106 63 169 69 58 5 64 4 94 -23 24
-22 34 -40 38 -74 4 -36 13 -53 44 -82 22 -21 39 -47 39 -59 0 -31 -50 -73
-127 -105 l-68 -29 67 -6 c76 -6 87 -12 72 -37 -33 -53 -138 -87 -267 -86 -44
1 -72 -3 -65 -7 27 -18 -79 -8 -120 11 -132 60 -223 197 -242 369 -9 83 2 131
46 188 28 37 26 40 -18 17 -28 -15 -32 -15 -40 0 -5 8 -41 36 -81 62 -82 53
-227 195 -246 242 -11 27 -11 35 2 56 33 50 147 56 241 13z m2458 -266 c95
-98 172 -207 194 -273 12 -36 15 -72 12 -129 -9 -154 -91 -261 -251 -325 -65
-26 -83 -29 -192 -29 -104 0 -125 3 -150 20 l-30 20 35 2 c19 2 64 6 100 10
l65 7 -107 12 c-58 7 -126 21 -150 32 -38 16 -44 23 -43 48 0 28 2 29 45 28
25 0 72 -4 105 -7 l60 -7 -61 15 c-79 20 -166 72 -178 106 -21 60 17 73 124
44 30 -8 66 -15 80 -14 l25 0 -25 17 c-14 9 -49 39 -77 66 -40 36 -53 56 -53
77 0 49 46 50 196 3 98 -30 102 -30 110 2 4 16 9 21 14 14 11 -18 60 0 73 27
9 20 5 41 -21 121 -24 71 -32 109 -28 142 2 25 4 46 5 48 1 1 11 2 23 2 15 0
49 -27 100 -79z m2317 24 c59 -22 77 -24 108 -16 44 13 60 5 38 -19 -12 -13
-13 -20 -5 -25 6 -4 15 -17 20 -29 7 -17 9 -12 10 24 l0 45 21 -25 c26 -31 73
-132 88 -185 14 -54 20 -191 9 -207 -7 -10 -11 -10 -14 -1 -3 7 -12 9 -20 6
-8 -3 -21 0 -29 7 -10 9 -15 9 -15 1 0 -19 -28 -12 -44 10 -14 21 -15 21 -31
-17 -16 -40 -44 -156 -71 -298 -41 -216 -216 -556 -399 -775 -139 -166 -343
-335 -417 -345 -3 -1 -9 -4 -13 -8 -4 -4 -13 -4 -19 -2 -22 9 -7 77 43 195 35
82 45 117 37 125 -16 17 -45 0 -240 -145 -202 -151 -453 -320 -542 -365 l-64
-33 38 -11 c20 -6 116 -27 212 -47 177 -37 268 -61 284 -75 5 -5 15 -6 24 -3
10 4 13 2 8 -5 -4 -7 -5 -12 -2 -12 2 0 12 -3 22 -7 13 -5 15 -3 9 7 -5 8 -4
11 3 6 6 -4 9 -13 6 -21 -4 -10 31 -26 143 -61 127 -41 158 -48 223 -46 83 1
136 -21 142 -60 2 -14 23 -34 58 -55 74 -44 106 -76 121 -120 12 -37 12 -37
-32 -76 -142 -127 -422 -234 -862 -332 -616 -136 -1210 -198 -2022 -212 -796
-13 -1613 57 -2317 198 -478 96 -841 239 -943 373 -25 33 -26 36 -10 65 8 17
38 49 66 71 63 49 270 154 351 176 47 14 57 19 42 25 -10 4 -34 8 -51 8 -34 1
-42 11 -20 29 6 5 86 13 177 17 91 4 169 10 175 13 5 4 23 5 40 4 24 -1 26 0
11 6 -27 12 88 34 135 27 27 -4 30 -3 14 5 -15 8 -9 9 25 4 34 -4 41 -3 30 6
-11 8 -5 9 25 5 30 -5 36 -4 25 4 -11 8 -7 9 19 4 24 -4 32 -3 27 5 -5 8 2 10
24 6 17 -4 30 -2 30 3 0 6 11 8 25 5 14 -2 25 0 25 7 0 5 6 8 13 5 7 -2 31 0
52 6 l40 10 -38 -5 -38 -4 21 26 c46 59 12 123 -64 123 -120 0 -542 273 -737
477 -160 167 -399 524 -385 576 3 13 -1 21 -13 24 -25 6 -90 117 -196 332
-130 262 -179 418 -151 483 6 13 1 21 -18 29 -14 7 -26 15 -26 19 0 8 40 3
170 -22 193 -37 602 -205 767 -315 32 -22 65 -38 74 -36 9 2 26 22 39 45 20
35 21 45 11 78 -6 20 -11 54 -11 74 0 34 2 37 23 31 12 -4 36 -15 52 -24 57
-33 89 -40 116 -25 13 7 37 13 53 14 25 0 28 -3 22 -22 -15 -52 -18 -86 -7
-92 6 -4 11 -18 11 -30 0 -15 7 -26 20 -29 30 -8 24 -25 -13 -32 -59 -12 -85
-26 -97 -56 -16 -37 -24 -37 -40 1 -15 35 -53 57 -91 52 l-27 -3 42 -47 c44
-50 55 -61 245 -247 131 -129 219 -231 287 -335 31 -48 48 -66 66 -67 13 -2
57 -16 97 -33 116 -48 297 -94 445 -114 37 -5 38 -4 33 22 -13 69 -30 223 -24
228 3 3 19 -3 36 -15 24 -17 31 -31 36 -69 3 -26 22 -142 41 -259 18 -116 34
-227 34 -247 0 -33 -1 -34 -27 -27 -26 7 -30 15 -52 108 l-23 101 -117 27
c-104 24 -208 59 -369 124 -48 19 -52 19 -43 3 27 -50 97 -250 121 -347 l28
-110 109 -1 c118 -1 197 -20 305 -75 67 -34 74 -42 52 -63 -24 -25 -72 -19
-143 18 -83 42 -148 63 -231 75 -36 5 -66 8 -68 6 -1 -1 32 -19 74 -40 173
-85 301 -279 320 -483 l7 -72 -36 0 c-32 0 -39 4 -51 33 -8 17 -22 43 -30 57
-8 14 -31 59 -50 100 -45 94 -103 162 -180 212 -107 69 -145 54 -222 -93 -20
-38 -49 -79 -63 -90 -25 -20 -39 -41 -79 -122 -12 -23 -22 -33 -24 -25 -3 7
-8 -28 -12 -78 -7 -93 -1 -141 29 -223 24 -69 20 -88 -20 -101 -42 -14 -95
-56 -95 -75 0 -55 272 -135 613 -180 539 -70 1526 -86 2197 -35 224 18 629 59
730 75 52 8 144 22 204 30 59 8 140 22 180 30 39 9 82 18 96 21 20 4 26 12 25
32 0 26 -1 27 -60 24 -59 -3 -236 20 -307 39 -24 6 -38 16 -38 25 0 9 16 53
36 97 32 71 37 94 39 172 2 50 0 81 -4 70 -8 -19 -8 -19 -19 2 -7 12 -12 51
-12 87 0 59 -2 66 -19 66 -11 0 -23 4 -26 10 -3 5 -28 16 -55 24 -45 13 -55
13 -141 -9 -51 -13 -122 -27 -158 -31 -42 -4 -93 -19 -140 -40 -41 -19 -79
-34 -86 -34 -7 0 -18 -7 -25 -15 -10 -12 -16 -13 -27 -3 -11 9 -13 24 -9 60 9
65 51 192 86 256 24 44 26 53 13 61 -13 7 -13 12 2 42 29 55 83 116 133 149
51 34 86 35 156 6 l35 -15 5 32 c3 18 10 66 16 107 24 166 136 419 272 616 66
97 260 299 377 393 52 42 125 101 163 131 137 112 396 256 581 325 45 17 48
20 42 47 -9 40 36 105 90 130 57 27 205 18 304 -17z m-1025 -209 c18 -36 18
-40 2 -72 -22 -46 -59 -63 -94 -43 -81 45 -52 165 38 157 29 -3 38 -9 54 -42z
m1990 36 c16 -26 -200 -185 -429 -316 -55 -32 -110 -67 -121 -78 -15 -13 -32
-18 -54 -16 l-33 3 98 85 c173 151 381 295 465 321 34 10 68 11 74 1z m-8683
-512 c25 -14 49 -62 49 -101 0 -22 -10 -41 -34 -65 -28 -28 -42 -34 -76 -34
-34 0 -48 6 -76 34 -38 38 -43 70 -19 116 26 51 106 76 156 50z m8447 -233
c15 -14 22 -32 22 -57 0 -31 -6 -39 -42 -64 -36 -23 -51 -27 -91 -23 -31 3
-56 12 -71 26 -13 12 -26 19 -28 14 -3 -4 -3 -2 -1 5 1 8 3 24 3 37 0 77 145
121 208 62z m-2944 -19 c17 -19 18 -33 13 -122 -6 -82 -50 -414 -82 -613 -6
-36 -13 -44 -55 -67 -26 -14 -51 -26 -55 -26 -13 0 2 106 49 334 26 126 49
254 52 285 3 31 10 70 14 86 5 17 10 48 11 70 2 42 14 75 27 75 4 0 16 -10 26
-22z m-5127 -325 c21 -32 86 -69 153 -87 30 -8 46 -15 35 -15 -25 -1 -124 -47
-149 -69 -24 -22 -54 -82 -73 -146 -13 -42 -17 -48 -24 -31 -4 11 -18 44 -30
73 -25 61 -88 121 -154 149 -25 10 -45 21 -45 24 0 3 19 15 42 25 84 38 136
103 169 213 l13 44 24 -78 c13 -43 31 -89 39 -102z m7849 -414 c29 -32 24
-151 -10 -253 -74 -219 -201 -306 -448 -306 l-108 0 0 33 0 32 113 1 c148 2
210 24 287 103 74 75 100 150 100 289 0 96 8 122 35 122 7 0 20 -10 31 -21z
m-7268 -85 c43 -18 88 -58 108 -96 41 -79 -16 -184 -120 -218 -80 -26 -192 24
-230 104 -65 137 91 273 242 210z m787 -203 c127 -26 196 -56 181 -79 -3 -6
-31 -16 -62 -22 l-55 -12 -52 41 c-60 46 -110 97 -87 89 9 -3 42 -11 75 -17z
m5795 -61 c24 -11 61 -81 76 -143 9 -39 -20 -110 -61 -146 -74 -65 -181 -48
-267 42 -51 53 -54 61 -38 119 32 113 181 179 290 128z m-2985 -115 c4 -30 16
-66 26 -80 17 -20 19 -39 18 -127 -1 -56 -3 -108 -6 -115 -4 -10 -62 -13 -264
-13 l-259 0 0 118 c1 85 4 122 15 136 8 10 17 39 20 65 4 25 8 52 10 59 3 9
56 12 219 12 l215 0 6 -55z m3255 -660 c18 -19 46 -39 61 -46 l29 -12 -48 -22
c-55 -26 -77 -54 -95 -126 l-13 -50 -17 59 c-19 69 -65 117 -123 128 l-37 7
38 13 c66 22 99 66 132 174 2 8 12 -9 22 -38 10 -29 33 -68 51 -87z m-6881 60
c74 -63 60 -186 -26 -221 -100 -42 -183 13 -183 122 0 41 5 51 39 85 35 35 44
39 89 39 39 0 57 -6 81 -25z m794 -446 c76 -35 65 -159 -16 -174 -39 -8 -90
14 -101 40 -9 25 -7 74 4 95 11 20 56 49 77 50 7 0 23 -5 36 -11z"/>
<path d="M2219 9491 c-190 -74 -319 -280 -319 -508 0 -79 25 -193 55 -253 31
-60 97 -150 112 -150 40 0 393 144 393 161 0 4 -34 14 -75 24 -137 30 -217
112 -249 256 -24 104 -21 150 19 275 6 19 3 21 -19 17 -19 -4 -26 -1 -26 10 0
8 -2 21 -5 29 -3 7 0 22 8 32 11 15 17 16 39 6 24 -11 29 -9 64 30 l38 42 21
-26 c11 -14 24 -26 27 -26 3 0 15 14 26 32 l20 32 -23 18 c-29 22 -47 22 -106
-1z"/>
<path d="M2845 9255 c27 -81 37 -147 33 -216 l-5 -77 34 16 c40 19 41 33 9
110 -13 31 -31 80 -40 107 -9 28 -21 57 -27 65 -9 12 -10 11 -4 -5z"/>
<path d="M7953 6520 c-99 -60 -74 -210 39 -241 34 -9 44 -7 75 12 37 23 72 85
73 127 0 38 -30 92 -61 107 -39 21 -88 19 -126 -5z m102 -14 c27 -20 12 -42
-34 -50 -41 -6 -47 -13 -65 -70 -10 -29 -36 0 -36 39 0 48 42 95 84 95 18 0
41 -6 51 -14z"/>
<path d="M8701 6274 c-45 -38 -58 -92 -37 -149 41 -105 180 -98 216 11 17 52
5 97 -36 133 -46 40 -99 42 -143 5z m109 -30 c0 -23 -8 -28 -65 -36 -12 -2
-21 -12 -23 -26 -4 -29 -26 -23 -30 7 -6 42 8 72 40 86 41 17 78 2 78 -31z"/>
<path d="M8125 6140 c-16 -50 23 -149 78 -197 60 -52 142 -52 228 2 37 24 73
65 64 73 -3 3 -32 -9 -65 -26 -65 -34 -124 -48 -165 -38 -33 8 -85 81 -85 118
0 27 1 28 43 23 l42 -6 -50 27 c-27 15 -51 31 -53 35 -6 16 -31 9 -37 -11z"/>
<path d="M5792 7329 c-190 -23 -362 -142 -437 -301 -19 -40 -38 -92 -43 -114
-9 -39 -8 -43 15 -53 27 -12 24 -15 43 64 56 242 297 416 521 376 234 -41 368
-224 396 -541 8 -94 16 -101 43 -38 32 72 39 193 15 274 -25 89 -62 149 -131
213 -69 65 -163 109 -248 117 -28 3 -64 6 -81 8 -16 1 -58 -1 -93 -5z"/>
<path d="M5662 7129 c-115 -45 -182 -149 -182 -286 0 -85 14 -130 59 -189 71
-94 195 -129 314 -88 57 19 141 92 169 147 25 50 34 138 19 193 -24 91 -88
125 -102 55 -9 -42 -24 -52 -74 -49 -38 3 -41 6 -54 46 -13 41 -12 45 9 67 13
14 31 27 42 31 30 9 21 41 -19 69 -47 31 -106 32 -181 4z"/>
<path d="M4355 7081 c-169 -77 -200 -326 -57 -452 174 -153 432 -18 432 226 0
89 -39 166 -104 206 -41 25 -82 26 -70 2 5 -10 8 -42 8 -72 -1 -46 -5 -58 -28
-78 -35 -30 -71 -29 -101 2 -32 31 -32 68 -1 128 12 26 21 49 18 52 -11 11
-58 4 -97 -14z"/>
<path d="M6719 6948 c-70 -68 -165 -294 -177 -420 l-5 -58 36 -15 c20 -8 65
-15 101 -15 55 0 70 4 112 33 41 26 57 47 94 121 43 84 45 92 45 175 0 69 -5
94 -22 126 -29 55 -64 85 -105 91 -30 5 -39 1 -79 -38z"/>
<path d="M5085 6480 c-20 -33 25 -100 67 -100 26 0 22 25 -6 38 -15 6 -27 23
-31 41 -7 31 -19 39 -30 21z"/>
<path d="M4080 6370 c-38 -38 -19 -96 43 -130 73 -41 198 -25 227 29 16 31
-16 57 -109 91 -99 35 -134 37 -161 10z"/>
<path d="M5971 6334 c-80 -25 -104 -68 -56 -100 28 -19 106 -21 147 -5 60 23
73 92 21 112 -31 12 -58 10 -112 -7z"/>
<path d="M1883 6735 c-39 -85 -52 -141 -53 -220 0 -142 63 -288 170 -395 113
-113 212 -151 390 -149 l105 1 -60 13 c-143 32 -287 112 -368 206 -136 158
-198 367 -157 531 21 81 7 87 -27 13z"/>
<path d="M5350 4634 c73 -117 90 -202 66 -321 -21 -106 -21 -111 9 -83 87 82
65 292 -43 403 -46 47 -60 48 -32 1z"/>
<path d="M3331 1674 c0 -11 3 -14 6 -6 3 7 2 16 -1 19 -3 4 -6 -2 -5 -13z"/>
<path d="M2918 1653 c6 -2 18 -2 25 0 6 3 1 5 -13 5 -14 0 -19 -2 -12 -5z"/>
<path d="M2868 1643 c6 -2 18 -2 25 0 6 3 1 5 -13 5 -14 0 -19 -2 -12 -5z"/>
<path d="M3323 1615 c0 -22 2 -30 4 -17 2 12 2 30 0 40 -3 9 -5 -1 -4 -23z"/>
</g>
</svg>
